<?xml version="1.0" encoding="UTF-8" standalone="no"?>
<!-- Generator: Adobe Illustrator 19.0.0, SVG Export Plug-In . SVG Version: 6.00 Build 0)  -->

<svg
   xmlns:dc="http://purl.org/dc/elements/1.1/"
   xmlns:cc="http://creativecommons.org/ns#"
   xmlns:rdf="http://www.w3.org/1999/02/22-rdf-syntax-ns#"
   xmlns:svg="http://www.w3.org/2000/svg"
   xmlns="http://www.w3.org/2000/svg"
   xmlns:sodipodi="http://sodipodi.sourceforge.net/DTD/sodipodi-0.dtd"
   xmlns:inkscape="http://www.inkscape.org/namespaces/inkscape"
   version="1.1"
   id="Layer_1"
   x="0px"
   y="0px"
   viewBox="0 0 461 461"
   style="enable-background:new 0 0 461 461;"
   xml:space="preserve"
   inkscape:version="0.91 r13725"
   sodipodi:docname="gemtransparente.svg"><metadata
     id="metadata55"><rdf:RDF><cc:Work
         rdf:about=""><dc:format>image/svg+xml</dc:format><dc:type
           rdf:resource="http://purl.org/dc/dcmitype/StillImage" /></cc:Work></rdf:RDF></metadata><defs
     id="defs53" /><sodipodi:namedview
     pagecolor="#ffffff"
     bordercolor="#666666"
     borderopacity="1"
     objecttolerance="10"
     gridtolerance="10"
     guidetolerance="10"
     inkscape:pageopacity="0"
     inkscape:pageshadow="2"
     inkscape:window-width="1366"
     inkscape:window-height="703"
     id="namedview51"
     showgrid="false"
     inkscape:zoom="0.72397918"
     inkscape:cx="-128.62635"
     inkscape:cy="248.47456"
     inkscape:window-x="0"
     inkscape:window-y="28"
     inkscape:window-maximized="1"
     inkscape:current-layer="Layer_1" /><g
     id="g3392"
     transform="matrix(-1,0,0,-1,406.70342,456.47447)"><path
       style="fill:#3e81c8"
       d="m 182.78515,280.16653 22.169,-14.671 c 24.975,-16.528 39.885,-44.191 39.885,-73.999 l 0,-150.121004 11.351,5.236 c 61.282,28.271 100.879,90.036004 100.879,157.355004 0,24.22 -4.008,48.048 -11.912,70.823 l -1.866,5.377 -160.506,0 0,0 z"
       id="path9"
       inkscape:connector-curvature="0" /><path
       style="fill:#f5c525"
       d="m 156.16915,280.16653 c -61.117003,0 -110.839997,-49.723 -110.839997,-110.84 0,-14.751 2.329,-29.31 6.92,-43.271 l 1.81,-5.5 98.604997,0 -14.818,12.955 c 9.81,-8.09 22.375,-12.955 36.053,-12.955 39.116,0 70.94,31.824 70.94,70.94 0,48.893 -39.777,88.671 -88.67,88.671 z"
       id="path11"
       inkscape:connector-curvature="0" /><path
       style="fill:#eb7830"
       d="m 230.46215,148.74653 c -13.568,-17.915 -34.185,-28.19 -56.563,-28.19 l -120.340997,0 5.573,-11.491 c 11.199,-23.090004 28.565994,-42.626004 50.224997,-56.496004 22.262,-14.257 48.031,-21.792 74.523,-21.792 18.994,0 37.677,3.069 55.529,9.124 l 5.431,1.842 0,125.987004 -14.377,-18.984 z"
       id="path13"
       inkscape:connector-curvature="0" /><path
       inkscape:connector-curvature="0"
       id="path19"
       d="m 357.06916,-4.8834746 -311.740008,0 c -4.42,0 -8,3.58 -8,8 l 0,444.9999946 c 0,4.41 3.58,8 8,8 l 311.740008,0 c 4.42,0 8,-3.59 8,-8 l 0,-444.9999946 c 0,-4.42 -3.58,-8 -8,-8 z m -225.71,133.4399946 c -13.59,11.88 -22.21,29.32 -22.21,48.75 0,29.45 23.96,53.4 53.4,53.4 24.44,0 44.32,-19.88 44.32,-44.32 0,-20.43 -16.62,-37.06 -37.05,-37.06 -17.23,0 -31.25,14.02 -31.25,31.25 0,4.42 3.58,8 8,8 4.42,0 8,-3.58 8,-8 0,-8.41 6.84,-15.25 15.25,-15.25 11.61,0 21.05,9.45 21.05,21.06 0,15.62 -12.7,28.32 -28.32,28.32 -20.62,0 -37.4,-16.78 -37.4,-37.4 0,-26.88 21.87,-48.75 48.75,-48.75 34.71,0 62.94,28.23 62.94,62.94 0,44.48 -36.19,80.67 -80.67,80.67 -56.710003,0 -102.840008,-46.13 -102.840008,-102.84 0,-14.23 2.3,-27.94 6.52,-40.77 l 71.510008,0 0,0 z m -65.030008,-16 C 87.489157,68.926526 132.22916,38.776526 183.87916,38.776526 c 18.52,0 36.33,3.06 52.96,8.7 l 0,96.439994 c -14.42,-19.04 -37.26,-31.36 -62.94,-31.36 l -107.570008,0 z m -13,116.27 c 10.42,17.94 25.400005,32.92 43.340005,43.34 l -43.340005,0 0,-43.34 z m 295.740008,211.29 -295.740008,0 0,-151.95 277.960008,0 c -32.42,73.14 -105.7,124.29 -190.71,124.29 -4.42,0 -8,3.58 -8,8 0,4.41 3.58,8 8,8 59.96,0 116.34,-23.36 158.74,-65.76 21.84,-21.83 38.61,-47.38 49.75,-75.22 l 0,152.64 z m -11.47,-167.95 -128.23,0 c 26.17,-17.32 43.47,-47.01 43.47,-80.67 l 0,-137.619994 c 56.75,26.18 96.23,83.609994 96.23,150.089994 0,23.87 -4.05,46.82 -11.47,68.2 z m 11.47,-142.63 c -28.45,-62.889994 -91.79,-106.759994 -165.19,-106.759994 -56.86,0 -106.270003,32.55 -130.550008,79.999994 l 0,-91.659994 295.740008,0 0,118.419994 z"
       style="fill:#231f20" /></g><g
     id="g21" /><g
     id="g23" /><g
     id="g25" /><g
     id="g27" /><g
     id="g29" /><g
     id="g31" /><g
     id="g33" /><g
     id="g35" /><g
     id="g37" /><g
     id="g39" /><g
     id="g41" /><g
     id="g43" /><g
     id="g45" /><g
     id="g47" /><g
     id="g49" /></svg>